<svg width="109" height="109" viewBox="0 0 109 109" fill="none" xmlns="http://www.w3.org/2000/svg">
<rect width="109" height="109" rx="16" fill="url(#paint0_linear_2039_7028)"/>
<path d="M61.3744 83.8503H73.7622C77.0896 83.8503 79.8212 80.4943 79.8212 76.3797C79.8212 72.2651 77.0896 68.9091 73.7622 68.9091H34.7215C31.3941 68.9091 28.6624 72.2651 28.6624 76.3797C28.6624 80.4943 31.3828 83.8503 34.7215 83.8503H47.5927C48.5931 80.954 51.3023 78.8738 54.4835 78.8738C57.6648 78.8738 60.3739 80.954 61.3744 83.8503ZM73.7622 39.0266H34.7215C31.3941 39.0266 28.6624 35.6591 28.6624 31.556C28.6624 27.4529 31.3941 24.0854 34.7215 24.0854H73.751C77.0784 24.0854 79.81 27.4414 79.81 31.556C79.81 35.6706 77.0896 39.0266 73.7622 39.0266ZM21.8728 61.4385C18.1069 61.4385 15.0269 58.0825 15.0269 53.9679C15.0269 49.8533 18.1069 46.4973 21.8728 46.4973H86.1275C89.8933 46.4973 92.9734 49.8533 92.9734 53.9679C92.9734 58.0825 89.8933 61.4385 86.1275 61.4385H21.8728Z" fill="white"/>
<defs>
<linearGradient id="paint0_linear_2039_7028" x1="0.13625" y1="54.3183" x2="109.136" y2="54.3183" gradientUnits="userSpaceOnUse">
<stop stop-color="#FBC67A"/>
<stop offset="1" stop-color="#FFA561"/>
</linearGradient>
</defs>
</svg>
